<svg version="1.1" id="Layer_1" xmlns="http://www.w3.org/2000/svg" xmlns:xlink="http://www.w3.org/1999/xlink" x="0px" y="0px"
	 width="100%" viewBox="0 0 750 680" enable-background="new 0 0 750 680" xml:space="preserve">
<path fill="#FBF9F9" opacity="1.000000" stroke="none" 
	d="
M411.000000,681.000000 
	C274.000000,681.000000 137.500000,681.000000 1.000000,681.000000 
	C1.000000,454.333344 1.000000,227.666672 1.000000,1.000000 
	C251.000000,1.000000 501.000000,1.000000 751.000000,1.000000 
	C751.000000,227.666672 751.000000,454.333344 751.000000,681.000000 
	C637.833313,681.000000 524.666687,681.000000 411.000000,681.000000 
M448.077301,411.912964 
	C448.077301,411.912964 448.236389,411.893524 448.025146,411.373260 
	C447.713165,411.177094 447.401184,410.980927 447.075653,410.899506 
	C447.075653,410.899506 447.189056,410.877258 446.948395,410.324982 
	C446.345337,409.812653 445.742279,409.300323 445.114166,408.906830 
	C445.114166,408.906830 445.234406,408.889709 445.019989,408.371826 
	C444.709412,408.175385 444.398834,407.978943 444.074677,407.897675 
	C444.074677,407.897675 444.188446,407.875122 444.025269,407.428497 
	C443.662567,407.126892 443.299866,406.825287 442.783264,406.199036 
	C442.783264,406.199036 442.465424,406.031647 442.197845,405.644714 
	C441.841888,405.363159 441.485931,405.081604 441.103363,404.894470 
	C441.103363,404.894470 441.197845,404.868134 441.026703,404.402344 
	C440.639771,404.097076 440.252838,403.791840 439.719147,403.262543 
	C439.719147,403.262543 439.496552,403.113617 439.218170,402.710449 
	C438.857269,402.405457 438.496368,402.100464 438.113647,401.890015 
	C438.113647,401.890015 438.207825,401.866486 438.007965,401.214905 
	C433.380920,396.742432 428.753876,392.269958 424.101471,387.919769 
	C424.101471,387.919769 424.225800,387.908081 424.005493,387.380768 
	C423.688232,387.180542 423.371002,386.980347 422.962891,386.351654 
	C422.805359,386.065002 422.563110,385.925995 422.014343,385.404663 
	C421.707092,385.189606 421.399811,384.974548 421.078247,384.913330 
	C421.078247,384.913330 421.231506,384.894135 421.018127,384.376282 
	C420.707031,384.180664 420.395905,383.985016 420.071686,383.903687 
	C420.071686,383.903687 420.184784,383.882538 419.946045,383.329254 
	C419.344299,382.814972 418.742523,382.300720 418.115448,381.905914 
	C418.115448,381.905914 418.236328,381.888641 418.022980,381.367157 
	C417.712463,381.168365 417.401917,380.969543 417.075592,380.922302 
	C417.075592,380.922302 417.227173,380.906982 417.007477,380.380127 
	C416.688751,380.183746 416.370026,379.987335 415.958191,379.362030 
	C415.805450,379.071228 415.564850,378.928711 415.019958,378.400909 
	C414.708832,378.189209 414.397705,377.977539 414.073120,377.918610 
	C414.073120,377.918610 414.225372,377.900635 414.014038,377.383087 
	C413.704926,377.185547 413.395844,376.987976 413.073364,376.902588 
	C413.073364,376.902588 413.184235,376.881165 412.942413,376.329468 
	C412.341492,375.815125 411.740570,375.300781 411.114136,374.907135 
	C411.114136,374.907135 411.236389,374.890472 411.023651,374.369720 
	C410.712250,374.172516 410.400848,373.975342 410.075867,373.895782 
	C410.075867,373.895782 410.192017,373.872650 410.023224,373.414124 
	C409.645813,373.109528 409.268402,372.804932 408.746063,372.234070 
	C408.746063,372.234070 408.489502,372.072540 408.220428,371.672119 
	C407.858276,371.380188 407.496094,371.088226 407.109161,370.913116 
	C407.109161,370.913116 407.227631,370.897980 407.016113,370.379364 
	C406.705109,370.185394 406.394104,369.991455 406.073883,369.907104 
	C406.073883,369.907104 406.181030,369.882355 405.888611,369.286835 
	C403.991608,367.488556 402.094604,365.690277 399.870789,363.278717 
	C398.026062,361.796722 396.181335,360.314728 394.507507,358.970032 
	C388.143494,365.230743 382.080658,371.032501 376.203308,377.016510 
	C368.077850,385.289368 368.132416,385.353394 376.121063,393.387512 
	C377.371613,394.645264 378.695099,395.830475 380.241150,397.330658 
	C380.241150,397.330658 380.618561,397.380096 380.841156,397.142456 
	C380.841156,397.142456 380.580353,397.337402 380.829224,397.965271 
	C391.425995,408.721405 402.199493,419.310455 412.569580,430.280823 
	C422.860748,441.167664 435.416962,450.137756 441.864105,464.882172 
	C442.200287,465.985779 442.536469,467.089355 442.935181,468.119202 
	C442.935181,468.119202 442.847687,468.078094 442.678009,468.913757 
	C442.786224,470.605011 442.894409,472.296265 442.992462,473.997681 
	C442.992462,473.997681 442.985321,474.010284 442.817444,474.635223 
	C441.105743,480.089752 439.394043,485.544250 437.355988,491.644470 
	C437.360840,492.120880 437.365692,492.597290 436.812073,493.609039 
	C436.440765,495.348663 436.129486,497.103668 435.688843,498.825531 
	C431.365540,515.719543 432.669159,532.429749 437.502777,548.967529 
	C438.202789,551.362610 439.874512,553.473633 440.980469,555.845459 
	C440.980469,555.845459 441.107300,555.964294 440.954987,556.552795 
	C441.670319,558.174622 442.385651,559.796387 443.393738,562.046936 
	C443.534546,562.230225 443.675354,562.413574 443.893280,562.534180 
	C443.893280,562.534180 443.693359,562.463196 443.752747,563.256958 
	C443.845734,563.505493 443.938751,563.753967 444.044708,564.760681 
	C449.057800,576.312866 456.841187,585.817627 465.960083,594.319519 
	C477.812561,605.369995 491.652466,612.985596 507.735077,618.150085 
	C520.813293,621.365112 534.073059,623.010559 547.447510,620.976929 
	C553.178528,620.105530 558.686951,617.770142 565.082275,616.107300 
	C572.037415,616.087463 577.240845,611.742126 583.656067,608.915527 
	C584.432434,608.593018 585.208801,608.270447 586.559021,608.007324 
	C586.759277,607.695862 586.959473,607.384399 587.830078,606.899902 
	C590.635742,604.626465 593.441406,602.353088 596.667175,600.131775 
	C596.667175,600.131775 597.014648,599.890076 597.707275,599.924805 
	C607.578369,592.322144 616.417358,583.796692 622.794556,572.113770 
	C623.308044,571.064331 623.821533,570.014832 624.728638,568.651489 
	C624.853516,568.197754 624.978455,567.744019 625.513672,566.715027 
	C628.014343,560.150757 630.515015,553.586487 633.323669,546.461548 
	C633.834167,545.628418 634.344666,544.795288 635.140381,543.276917 
	C635.177490,542.288208 635.214600,541.299561 635.672058,540.081909 
	C635.829224,539.379089 635.986450,538.676331 636.378052,537.219299 
	C636.425964,535.652893 636.473877,534.086548 637.003906,532.041199 
	C637.161743,530.964539 637.319580,529.887817 637.709839,527.926147 
	C637.673035,522.330627 637.636169,516.735168 637.848389,510.421051 
	C637.381470,508.795807 636.914490,507.170563 636.486572,504.722137 
	C636.107666,502.892426 635.728760,501.062683 635.433044,498.488831 
	C635.267273,496.997437 635.101501,495.506012 634.922058,493.483063 
	C634.653442,493.278290 634.384888,493.073517 633.996704,492.973389 
	C633.996704,492.973389 634.131165,492.889313 634.130676,492.146545 
	C633.499695,490.649872 632.868713,489.153168 632.329895,487.088867 
	C632.224487,486.727051 632.119080,486.365265 632.248352,485.612823 
	C631.871460,485.011139 631.494568,484.409454 631.059448,483.044312 
	C628.411316,477.948700 625.763245,472.853088 622.994751,467.075500 
	C618.035461,457.879150 611.873291,449.712799 603.055115,443.356842 
	C603.055115,443.356842 602.791565,442.991394 602.736328,442.366486 
	C601.858032,441.842072 600.979797,441.317657 600.089355,440.915894 
	C600.089355,440.915894 600.210449,440.892975 599.989014,440.392609 
	C599.698120,440.183807 599.407166,439.975006 599.091431,439.875488 
	C599.091431,439.875488 599.201965,439.856995 599.001709,439.197998 
	C593.994507,436.159729 588.987305,433.121429 583.454590,429.756226 
	C583.122986,429.530975 582.791443,429.305695 582.017883,428.690033 
	C573.520569,425.413391 565.252319,421.178955 556.473511,419.079285 
	C542.482788,415.733124 528.162781,416.302765 513.189209,418.913300 
	C505.174164,421.912292 496.999512,424.552887 489.196777,428.028503 
	C483.397644,430.611694 477.855316,430.926971 471.320343,428.842346 
	C467.214325,426.213104 463.108307,423.583832 458.922913,420.646118 
	C458.922913,420.646118 458.625977,420.530914 458.529205,420.559662 
	C458.529205,420.559662 458.549896,420.460846 458.253113,419.865723 
	C455.524475,417.821503 452.795807,415.777283 449.995911,413.304565 
	C449.830566,413.022614 449.585114,412.896332 449.040314,412.386719 
	C448.723969,412.175598 448.407623,411.964447 448.077301,411.912964 
M318.514526,282.513214 
	C318.514526,282.513214 318.451324,282.412872 318.318451,282.072327 
	C318.318451,282.072327 317.958588,282.004211 317.702271,281.503357 
	C317.119446,281.048431 316.536591,280.593506 315.568268,279.588867 
	C310.158081,274.201782 304.693878,268.867584 299.354248,263.411438 
	C294.832306,258.790802 290.107849,254.303116 286.114014,249.249939 
	C282.395325,244.544861 280.657043,239.216217 284.527100,233.300537 
	C285.875031,231.240067 286.008942,228.385376 287.136536,225.324066 
	C290.604340,213.592804 290.370544,201.631073 288.864868,189.701767 
	C288.347809,185.604935 286.450012,181.682373 285.293945,176.929016 
	C281.529968,170.618607 277.765961,164.308197 273.717926,157.510300 
	C273.433197,157.314575 273.148499,157.118866 272.717560,156.437851 
	C272.432068,156.061523 272.146545,155.685181 271.894409,155.352829 
	C271.894409,155.570480 271.894409,155.851791 271.345215,155.365814 
	C269.537231,153.240295 267.729279,151.114777 265.865112,148.325806 
	C263.018097,146.084381 260.326050,143.604065 257.298950,141.640274 
	C237.518753,128.807953 216.124222,125.189438 193.488480,131.863174 
	C187.176788,133.724060 181.521576,137.811661 174.880157,140.742859 
	C171.202469,143.472565 167.524780,146.202286 163.208145,149.171860 
	C158.360062,155.047623 153.119492,160.653366 148.818573,166.905548 
	C146.432434,170.374222 145.615921,174.922668 143.873886,179.704971 
	C143.864716,179.955734 143.855530,180.206497 143.988770,180.478455 
	C143.988770,180.478455 143.885345,180.230774 143.269089,180.898758 
	C143.148712,181.176773 143.028351,181.454788 142.659683,182.424637 
	C141.736206,185.354965 140.133987,188.258377 140.016510,191.220673 
	C139.664001,200.109192 139.165146,209.099533 140.120667,217.898407 
	C140.891815,224.999664 142.406464,232.403885 147.925644,238.463715 
	C147.994980,238.651611 148.064316,238.839493 148.116455,239.764969 
	C151.016357,244.259186 153.916275,248.753418 156.865067,253.136185 
	C156.865067,253.136185 156.753525,253.184860 157.036102,253.794678 
	C158.201736,254.980576 159.353699,256.180267 160.535248,257.350067 
	C167.114349,263.863708 173.879044,270.113892 183.572372,273.301788 
	C186.456161,274.167908 189.339966,275.033997 192.708618,276.368805 
	C193.606644,276.998871 194.441559,278.042725 195.413101,278.190918 
	C201.113342,279.060181 206.847977,280.333832 212.566330,280.310852 
	C221.722656,280.274078 231.066879,280.308075 240.135437,275.256409 
	C247.767838,272.137360 254.344406,275.077820 260.781525,278.911804 
	C260.781525,278.911804 260.793243,278.969910 261.123260,279.572662 
	C269.360382,287.428040 277.637695,295.241852 285.820862,303.153076 
	C291.483459,308.627502 297.016144,314.236298 303.135284,320.309479 
	C310.150238,313.514343 316.961639,307.463501 323.124908,300.812073 
	C331.407623,291.873322 331.512939,293.694824 321.687653,285.255249 
	C321.687653,285.255249 321.507294,285.112366 321.214722,284.642120 
	C320.477203,284.090485 319.739685,283.538849 318.926361,282.671570 
	C318.926361,282.671570 318.617218,282.572540 318.514526,282.513214 
M447.892883,201.928177 
	C447.892883,201.928177 447.853088,201.844025 447.395203,202.336014 
	C447.266815,203.221436 447.138428,204.106857 446.421753,205.346649 
	C444.191986,208.987106 442.405060,213.012009 439.644592,216.191757 
	C432.922668,223.934616 425.749146,231.285461 418.921844,238.937149 
	C418.921844,238.937149 418.795807,238.759506 418.172729,238.999084 
	C411.696899,245.602097 405.221069,252.205093 398.862885,258.860474 
	C398.862885,258.860474 398.804779,258.745575 398.190918,259.011841 
	C392.304352,264.976868 386.417786,270.941925 380.070953,277.061218 
	C379.681030,277.560364 379.291077,278.059509 378.371155,278.902802 
	C378.254730,279.077881 378.138275,279.252991 377.503265,279.770142 
	C344.550049,312.981323 311.682953,346.278625 278.595184,379.355194 
	C267.559601,390.387054 255.959259,400.853943 244.914536,412.020935 
	C244.811493,411.875458 244.708435,411.730011 243.908081,411.692261 
	C230.325333,420.749359 215.177902,423.672150 199.335129,421.505829 
	C189.061020,420.100952 179.187698,420.636719 169.275238,423.032654 
	C145.473953,428.785797 127.047417,442.081085 113.326759,463.048950 
	C113.070129,463.642395 112.813499,464.235840 112.148186,464.988220 
	C111.900269,465.205170 111.820419,465.472351 111.695015,466.082764 
	C111.583649,466.313721 111.574593,466.548584 111.173866,467.182739 
	C111.068031,467.573853 110.962196,467.964966 110.350960,468.764069 
	C110.208015,469.169250 110.065071,469.574432 109.374092,470.252258 
	C109.229462,470.825226 109.084824,471.398193 108.549965,472.536255 
	C99.710815,491.202179 98.102318,510.522858 102.914803,530.561584 
	C113.657288,575.292297 157.941086,602.945251 202.859756,595.158936 
	C208.090332,594.252197 213.076202,591.933838 218.598969,590.178833 
	C218.598969,590.178833 218.984985,589.982361 219.729568,590.089355 
	C221.560989,589.114868 223.392395,588.140381 225.091537,587.123108 
	C225.091537,587.123108 225.092270,587.262146 225.739151,587.172546 
	C226.217194,586.820801 226.695251,586.469055 227.081757,586.106812 
	C227.081757,586.106812 227.110840,586.194214 227.850891,586.111938 
	C238.865921,581.154175 247.570755,573.357483 255.618759,563.723816 
	C256.675720,562.262329 257.755920,560.817017 258.786072,559.336914 
	C273.138733,538.715088 277.781342,515.981262 273.229858,491.384888 
	C270.673004,477.567780 271.056366,464.235870 276.734131,451.056732 
	C282.308136,438.118378 292.022003,428.417847 301.409546,417.588226 
	C336.709961,381.879486 372.028473,346.188599 407.297211,310.448608 
	C415.431366,302.205841 423.395172,293.795013 431.417511,285.336670 
	C431.417511,285.336670 431.297302,285.375732 431.885956,285.319336 
	C432.053223,284.994934 432.220520,284.670532 432.450775,284.478394 
	C432.450775,284.478394 432.596863,284.467438 433.201355,284.272980 
	C443.462158,274.819702 453.722961,265.366425 464.481873,255.812790 
	C464.691833,255.563797 464.901764,255.314804 465.013824,255.028854 
	C465.013824,255.028854 465.083771,255.106735 465.778992,254.931702 
	C473.053925,250.160110 481.156311,247.654892 490.614349,246.381653 
	C492.242798,246.293091 493.871216,246.204529 496.186676,246.560150 
	C498.115051,246.725372 500.043396,246.890594 502.620880,247.336914 
	C504.946075,248.177307 507.295441,248.956696 509.592621,249.867691 
	C528.068115,257.194580 546.947327,258.318481 565.977112,252.731674 
	C571.661133,251.062958 576.846436,247.695511 582.954773,245.070084 
	C585.633423,243.645309 588.312134,242.220535 591.676636,240.744843 
	C598.227356,234.950195 604.778137,229.155548 611.352539,223.262894 
	C611.352539,223.262894 611.276672,223.329330 611.819580,223.190353 
	C611.993774,222.877625 612.167969,222.564896 612.108521,222.216248 
	C612.108521,222.216248 612.325500,222.310059 612.921326,222.038162 
	C617.196045,215.345337 621.470764,208.652512 626.319824,201.532791 
	C628.554626,194.692505 630.789490,187.852219 633.422302,180.580780 
	C633.463135,180.010086 633.503967,179.439392 633.794189,178.116898 
	C634.157166,175.752625 634.520142,173.388367 635.098328,170.105072 
	C636.097595,151.113144 633.845886,132.766083 624.131409,115.157013 
	C622.629944,112.430901 621.551025,109.334526 619.547668,107.048164 
	C613.558472,100.213051 607.207214,93.695107 600.558411,86.844398 
	C600.558411,86.844398 600.097717,86.689156 600.024719,86.290276 
	C599.878540,86.023476 599.653564,85.897026 599.102051,85.362801 
	C598.763611,85.174515 598.425110,84.986229 598.126770,84.889999 
	C598.126770,84.889999 598.197449,84.818756 597.930359,84.206795 
	C596.670532,83.396858 595.410767,82.586922 594.103394,81.880234 
	C594.103394,81.880234 594.210144,81.841232 594.021423,81.189705 
	C593.164124,80.418037 592.399841,79.497032 591.435913,78.896584 
	C567.739746,64.136078 542.284729,59.648777 515.217590,66.775627 
	C508.555450,68.529785 502.401428,72.213585 495.998779,75.001068 
	C495.998779,75.001068 496.011047,75.016716 495.537170,75.430801 
	C494.895844,75.911911 494.254547,76.393028 492.921143,76.881088 
	C490.944122,78.055740 488.967072,79.230400 486.314026,80.475914 
	C485.280945,80.958031 484.118378,81.270721 483.233673,81.946953 
	C458.137451,101.128845 444.747009,126.500832 443.325836,158.067245 
	C442.812927,169.459747 445.012695,180.476028 448.763947,191.721649 
	C448.817993,192.093903 448.872009,192.466141 448.731842,193.142151 
	C448.719055,193.261581 448.673737,193.388840 448.700226,193.498810 
	C448.754761,193.725098 448.847687,193.942108 448.766571,194.927277 
	C448.767029,196.728378 448.767487,198.529465 448.218811,200.707565 
	C448.079132,201.113556 447.939484,201.519562 447.892883,201.928177 
z"/>
<path fill="#1A7BCB" opacity="1.000000" stroke="none" 
	d="
M378.901123,278.558655 
	C379.291077,278.059509 379.681030,277.560364 380.692719,276.993042 
	C383.289551,275.570129 385.616821,274.531464 387.171204,272.799255 
	C391.229614,268.276733 394.949738,263.450623 398.804779,258.745575 
	C398.804779,258.745575 398.862885,258.860474 399.176361,258.877747 
	C400.393860,258.528473 401.532593,258.395081 402.164948,257.758606 
	C407.386871,252.502670 412.551453,247.187790 417.628448,241.792023 
	C418.315643,241.061676 418.421021,239.783829 418.795776,238.759491 
	C418.795807,238.759506 418.921844,238.937149 419.201111,238.923645 
	C420.324615,238.439835 421.359070,238.145996 421.984192,237.472321 
	C429.512634,229.359406 437.392273,221.523972 444.347809,212.941467 
	C451.229034,204.450775 452.680634,194.494492 448.830627,183.654236 
	C444.395813,167.756058 445.032410,152.245789 448.865906,136.721191 
	C453.663544,117.291916 463.346710,100.968330 479.016632,88.293343 
	C481.908936,85.953812 484.343964,83.048973 486.990051,80.405060 
	C488.967072,79.230400 490.944122,78.055740 493.619141,76.879257 
	C494.881744,76.257187 495.446411,75.636955 496.011047,75.016716 
	C496.011047,75.016716 495.998779,75.001068 496.407288,75.001114 
	C502.776093,73.015305 508.639587,70.643272 514.715820,69.119415 
	C530.038452,65.276627 545.502319,64.488670 560.957642,68.498085 
	C571.560974,71.248787 581.937561,74.568298 590.925110,81.200142 
	C591.736145,81.798615 593.101990,81.645370 594.210144,81.841232 
	C594.210144,81.841232 594.103394,81.880234 594.109070,82.210350 
	C595.475647,83.299896 596.836548,84.059326 598.197449,84.818756 
	C598.197449,84.818756 598.126770,84.889999 598.212524,85.128975 
	C598.648743,85.548943 598.999207,85.729935 599.349670,85.910934 
	C599.653564,85.897026 599.878540,86.023476 600.122681,86.764336 
	C600.473145,87.506371 600.725586,87.774353 601.130127,88.336945 
	C605.973938,93.961281 610.834106,99.154793 615.297058,104.669769 
	C618.156067,108.202698 620.428894,112.209923 623.013672,116.373718 
	C625.683716,124.052383 629.140442,131.183685 630.744690,138.709839 
	C633.723816,152.686356 633.606750,166.896835 630.986694,181.405304 
	C630.484680,183.527435 630.017700,185.267426 629.501709,186.992767 
	C628.005920,191.994095 626.490479,196.989532 624.700195,202.176300 
	C621.433350,206.874985 618.372192,211.336395 615.500488,215.916611 
	C614.242676,217.922699 613.371948,220.171478 612.325500,222.310059 
	C612.325500,222.310059 612.108521,222.216248 611.925781,222.262451 
	C611.587524,222.648865 611.432129,222.989105 611.276672,223.329330 
	C611.276672,223.329330 611.352539,223.262894 610.980469,223.217087 
	C610.135010,223.284485 609.539856,223.252518 609.206543,223.532471 
	C603.307312,228.486526 597.417664,233.452850 591.605896,238.508377 
	C591.111572,238.938309 591.182495,240.017975 590.990845,240.795776 
	C588.312134,242.220535 585.633423,243.645309 582.208923,245.059784 
	C580.203674,245.413208 578.879822,245.632706 577.694580,246.162308 
	C560.229553,253.966064 542.140198,256.176727 523.457703,251.858353 
	C516.554993,250.262787 509.823425,247.926727 502.801178,245.599854 
	C497.765594,244.859497 492.752533,243.415756 488.161224,244.261490 
	C479.885223,245.785980 471.205048,247.150696 464.651062,253.999390 
	C454.045074,263.028931 443.759766,271.984131 433.587250,281.065674 
	C432.840210,281.732574 432.907928,283.312164 432.596863,284.467438 
	C432.596863,284.467438 432.450775,284.478394 432.103882,284.398132 
	C431.603790,284.670532 431.450562,285.023132 431.297302,285.375732 
	C431.297302,285.375732 431.417511,285.336670 431.060425,285.269409 
	C429.841339,285.621155 428.778961,285.843750 428.147003,286.488312 
	C417.070648,297.785553 406.077667,309.164459 395.004944,320.465240 
	C376.545563,339.304840 358.080902,358.139618 339.544189,376.902985 
	C327.296570,389.300354 314.900482,401.550964 302.630554,413.926453 
	C301.520142,415.046448 300.847412,416.600372 299.629272,418.002747 
	C296.057251,421.335724 292.579010,424.411896 289.641876,427.938690 
	C278.644257,441.143860 268.663818,454.654846 270.890015,473.545929 
	C272.060730,483.480835 271.150299,493.658905 272.287231,503.600525 
	C273.526794,514.439575 271.195892,524.610107 268.555420,534.815125 
	C265.852722,545.260437 259.908936,554.121216 253.686859,563.114624 
	C246.660172,571.766968 238.267715,578.238953 228.944321,583.622070 
	C228.114685,584.101074 227.711884,585.319275 227.110840,586.194214 
	C227.110840,586.194214 227.081757,586.106812 226.792847,586.091919 
	C226.033386,586.472046 225.562836,586.867065 225.092270,587.262146 
	C225.092270,587.262146 225.091537,587.123108 224.756943,587.086426 
	C222.609894,588.027283 220.797440,589.004822 218.984985,589.982361 
	C218.984985,589.982361 218.598969,590.178833 218.176117,589.935730 
	C216.818542,589.759888 215.876099,589.772461 214.950287,589.902893 
	C205.325668,591.259094 195.702286,593.794434 186.081345,593.782349 
	C159.336609,593.748657 137.230331,582.943542 120.542915,561.947754 
	C108.843399,547.227661 103.061867,530.394104 102.813492,511.351013 
	C102.638527,497.936218 105.355797,485.381012 110.334320,472.859070 
	C111.766457,470.130890 112.901855,467.584473 114.333374,464.870697 
	C114.869980,464.475098 115.175591,464.286407 115.341614,464.013000 
	C124.672646,448.643921 137.963074,437.475403 154.119995,430.325287 
	C168.787613,423.834259 184.397278,420.832245 200.668015,423.859833 
	C204.697006,424.609497 209.039856,425.359650 212.963181,424.629822 
	C220.556824,423.217285 228.115799,421.191833 235.363831,418.533447 
	C238.827927,417.262909 241.548218,413.964478 244.605392,411.584534 
	C244.708435,411.730011 244.811493,411.875458 245.136780,411.915833 
	C246.824097,411.113068 248.573837,410.722778 249.710129,409.670258 
	C260.869354,399.333496 272.112946,389.076233 282.959106,378.416412 
	C293.334412,368.219330 303.164337,357.469910 313.414734,347.142670 
	C333.770355,326.634399 354.263733,306.262848 374.648743,285.783600 
	C375.997711,284.428406 376.913055,282.641571 378.289673,280.821075 
	C378.666565,279.910675 378.783875,279.234650 378.901123,278.558655 
z"/>
<path fill="#1A2932" opacity="1.000000" stroke="none" 
	d="
M625.103333,567.290283 
	C624.978455,567.744019 624.853516,568.197754 624.180481,568.851685 
	C623.085754,569.691284 622.539246,570.330688 621.687988,571.122437 
	C614.861267,579.066467 608.354248,586.870667 601.806213,594.640320 
	C600.280579,596.450562 598.615540,598.143250 597.014648,599.890076 
	C597.014648,599.890076 596.667175,600.131775 596.088013,600.116028 
	C591.348816,603.013367 587.188660,605.926514 583.028564,608.839600 
	C577.240845,611.742126 572.037415,616.087463 564.256775,616.070251 
	C555.695007,617.163025 547.980042,618.486206 540.213501,619.341003 
	C536.339844,619.767395 532.345459,619.599731 528.455017,619.209167 
	C525.444397,618.906860 522.540222,617.662048 519.534607,617.160278 
	C516.060120,616.580200 512.526306,616.355347 508.918701,615.599731 
	C504.396484,613.818359 499.849213,612.716125 495.572235,610.956848 
	C475.663177,602.767395 460.422058,589.148560 449.321075,570.755005 
	C447.854614,568.325073 445.809082,566.244629 444.031738,564.002380 
	C443.938751,563.753967 443.845734,563.505493 443.755249,562.888672 
	C443.757721,562.520447 443.816162,562.596924 443.816162,562.596924 
	C443.675354,562.413574 443.534546,562.230225 443.101379,561.460815 
	C442.241760,559.237915 441.674530,557.601135 441.107300,555.964294 
	C441.107300,555.964294 440.980469,555.845459 440.996002,555.395569 
	C440.364136,550.988770 439.804993,547.014771 439.046661,543.079224 
	C438.126740,538.305054 436.322174,533.584290 436.182129,528.802856 
	C435.939026,520.501282 436.557281,512.163086 437.087128,503.857605 
	C437.235718,501.529266 438.074066,499.137817 439.076050,497.000397 
	C440.133942,494.743774 440.655701,493.221466 437.370544,493.073700 
	C437.365692,492.597290 437.360840,492.120880 437.825562,491.298584 
	C439.549805,488.947632 440.804474,486.942566 441.968445,485.082520 
	C442.303558,481.433563 442.644440,477.721924 442.985321,474.010284 
	C442.985321,474.010284 442.992462,473.997681 443.365051,473.918671 
	C445.618134,471.582855 446.139801,469.535950 442.847687,468.078094 
	C442.847687,468.078094 442.935181,468.119202 442.917145,467.759155 
	C442.990356,466.879425 443.081604,466.359680 443.419373,465.599060 
	C443.588745,464.083710 443.982666,462.476654 443.356506,461.589905 
	C439.836609,456.605377 436.530273,451.347809 432.306915,447.004181 
	C417.050354,431.313202 401.486847,415.919586 385.941284,400.512482 
	C384.510651,399.094604 382.383881,398.379059 380.580353,397.337402 
	C380.580353,397.337402 380.841156,397.142456 380.819580,396.997925 
	C380.674408,396.541962 380.550842,396.230530 380.427246,395.919128 
	C380.279816,396.295837 380.132355,396.672546 379.984863,397.049255 
	C378.695099,395.830475 377.371613,394.645264 376.121063,393.387512 
	C368.132416,385.353394 368.077850,385.289368 376.203308,377.016510 
	C382.080658,371.032501 388.143494,365.230743 394.507507,358.970032 
	C396.181335,360.314728 398.026062,361.796722 399.803467,363.761414 
	C401.884460,366.123505 404.032745,368.002930 406.181030,369.882385 
	C406.181030,369.882355 406.073883,369.907104 406.168823,370.123657 
	C406.585083,370.526093 406.906372,370.712036 407.227631,370.897980 
	C407.227631,370.897980 407.109161,370.913116 407.106384,371.192657 
	C407.565582,371.672302 408.027527,371.872437 408.489502,372.072540 
	C408.489502,372.072540 408.746063,372.234070 408.669647,372.663696 
	C409.126160,373.353058 409.659088,373.612854 410.192017,373.872650 
	C410.192017,373.872650 410.075867,373.895782 410.175964,374.108948 
	C410.596191,374.511536 410.916290,374.700989 411.236389,374.890472 
	C411.236389,374.890472 411.114136,374.907135 411.109344,375.205719 
	C411.797791,375.963257 412.491028,376.422211 413.184235,376.881165 
	C413.184235,376.881165 413.073364,376.902588 413.170227,377.118073 
	C413.586548,377.522583 413.905975,377.711609 414.225372,377.900635 
	C414.225372,377.900635 414.073120,377.918610 414.175354,378.119720 
	C414.597198,378.525391 414.916779,378.729980 415.236389,378.934540 
	C415.564850,378.928711 415.805450,379.071228 416.106750,379.846802 
	C416.579254,380.523376 416.903229,380.715179 417.227173,380.906982 
	C417.227173,380.906982 417.075592,380.922302 417.176422,381.119354 
	C417.596924,381.507172 417.916626,381.697906 418.236328,381.888641 
	C418.236328,381.888641 418.115448,381.905914 418.109192,382.204742 
	C418.796906,382.963226 419.490845,383.422882 420.184784,383.882538 
	C420.184784,383.882538 420.071686,383.903687 420.171631,384.117279 
	C420.591553,384.518616 420.911530,384.706360 421.231506,384.894135 
	C421.231506,384.894135 421.078247,384.913330 421.178101,385.115356 
	C421.597351,385.523132 421.916718,385.728882 422.236115,385.934631 
	C422.563110,385.925995 422.805359,386.065002 423.109161,386.837830 
	C423.578888,387.518677 423.902344,387.713379 424.225800,387.908081 
	C424.225800,387.908081 424.101471,387.919769 424.087494,388.217682 
	C428.784943,392.965912 433.496368,397.416199 438.207825,401.866486 
	C438.207825,401.866486 438.113647,401.890015 438.107849,402.181366 
	C438.566864,402.686340 439.031708,402.899963 439.496552,403.113617 
	C439.496552,403.113617 439.719147,403.262543 439.650818,403.677124 
	C440.120941,404.350494 440.659393,404.609314 441.197845,404.868134 
	C441.197845,404.868134 441.103363,404.894470 441.103577,405.180847 
	C441.557648,405.655365 442.011536,405.843506 442.465424,406.031647 
	C442.465424,406.031647 442.783264,406.199036 442.697998,406.646973 
	C443.137939,407.354980 443.663208,407.615051 444.188446,407.875122 
	C444.188446,407.875122 444.074677,407.897675 444.174438,408.111633 
	C444.594269,408.513641 444.914337,408.701691 445.234406,408.889709 
	C445.234406,408.889709 445.114166,408.906830 445.108307,409.206604 
	C445.797974,409.963348 446.493530,410.420288 447.189056,410.877258 
	C447.189056,410.877258 447.075653,410.899506 447.173370,411.114655 
	C447.592865,411.517700 447.914612,411.705627 448.236389,411.893524 
	C448.236389,411.893524 448.077301,411.912964 448.181580,412.112976 
	C448.610413,412.517242 448.934998,412.721466 449.259552,412.925659 
	C449.585114,412.896332 449.830566,413.022614 450.112244,413.857758 
	C453.002319,416.427582 455.776123,418.444214 458.549896,420.460846 
	C458.549896,420.460846 458.529205,420.559662 458.467682,420.813171 
	C458.603302,421.363220 458.800476,421.659729 459.125458,422.269226 
	C462.914581,426.890076 466.972687,430.556091 473.218994,431.334717 
	C478.870575,434.439392 483.956238,432.846558 489.017181,430.504364 
	C496.869232,426.870422 504.299683,421.890503 513.602417,422.764496 
	C514.024292,422.804169 514.558228,421.651703 515.443970,420.989807 
	C520.576111,420.290039 525.304932,419.125977 530.032410,419.131378 
	C539.486511,419.142181 549.035156,418.326141 558.150635,422.419403 
	C562.660034,424.444397 567.707886,425.285156 572.531067,426.591827 
	C575.823669,427.483917 579.149109,428.255157 582.459839,429.080444 
	C582.791443,429.305695 583.122986,429.530975 583.783813,430.255249 
	C589.142639,433.788544 594.172302,436.822784 599.201965,439.856995 
	C599.201965,439.856995 599.091431,439.875488 599.192322,440.087646 
	C599.598938,440.497528 599.904724,440.695251 600.210449,440.892975 
	C600.210449,440.892975 600.089355,440.915894 600.167786,441.164490 
	C601.094666,441.939209 601.943115,442.465302 602.791565,442.991394 
	C602.791565,442.991394 603.055115,443.356842 603.090088,443.935486 
	C606.005920,447.772308 609.062073,450.894623 611.722107,454.324158 
	C614.840027,458.343964 617.617615,462.628113 620.532959,466.804474 
	C621.182373,467.734772 621.295105,470.031830 623.115112,467.757477 
	C625.763245,472.853088 628.411316,477.948700 631.050415,483.754181 
	C631.365417,484.977203 631.689575,485.490326 632.013672,486.003479 
	C632.119080,486.365265 632.224487,486.727051 632.161621,487.724152 
	C631.993286,490.209625 631.993286,492.059814 631.993286,493.611176 
	C632.405823,493.471863 633.268494,493.180573 634.131165,492.889282 
	C634.131165,492.889313 633.996704,492.973389 634.061462,493.182617 
	C634.396057,493.599426 634.665833,493.807037 634.935669,494.014618 
	C635.101501,495.506012 635.267273,496.997437 635.188354,499.263184 
	C634.695557,500.978363 634.207886,501.926971 634.238159,502.858795 
	C634.436096,508.950562 634.746155,515.038696 634.730225,521.397583 
	C634.397034,526.901367 635.307434,532.367737 634.103088,537.319763 
	C631.849915,546.584351 628.357178,555.546448 625.423401,564.648315 
	C625.156250,565.477234 625.202576,566.407227 625.103333,567.290283 
z"/>
<path fill="#1B2A33" opacity="1.000000" stroke="none" 
	d="
M148.133652,239.027359 
	C148.064316,238.839493 147.994980,238.651611 147.909241,237.795715 
	C146.412170,231.487717 145.340088,225.699844 143.363632,220.239304 
	C139.547577,209.696274 140.638489,199.213806 142.605972,188.602966 
	C143.019821,186.370987 142.823273,184.025818 142.907990,181.732803 
	C143.028351,181.454788 143.148712,181.176773 143.575928,180.606049 
	C143.882751,180.313339 143.846344,180.457275 143.846344,180.457275 
	C143.855530,180.206497 143.864716,179.955734 144.328369,179.275696 
	C145.140045,178.530777 145.687347,178.282578 145.826691,177.889694 
	C149.572372,167.327545 155.490982,158.244049 163.961121,150.842422 
	C164.255096,150.585541 163.899765,149.585602 163.847076,148.932007 
	C167.524780,146.202286 171.202469,143.472565 175.633942,140.826294 
	C181.086929,140.380783 184.220413,136.379990 189.451431,136.057617 
	C195.762177,135.668701 201.838745,131.689041 208.160248,131.226715 
	C227.792664,129.790924 245.782501,134.933121 261.573608,147.056412 
	C262.796631,147.995331 264.461700,148.358490 265.921295,148.989258 
	C267.729279,151.114777 269.537231,153.240295 271.648987,155.759583 
	C272.256439,156.409958 272.560089,156.666565 272.863770,156.923157 
	C273.148499,157.118866 273.433197,157.314575 273.867432,158.128113 
	C277.324463,165.426178 280.631927,172.106430 283.939423,178.786667 
	C284.353943,178.417847 284.768494,178.049011 285.183014,177.680191 
	C286.450012,181.682373 288.347809,185.604935 288.864868,189.701767 
	C290.370544,201.631073 290.604340,213.592804 286.702454,225.449234 
	C286.055145,225.321533 285.860962,225.047165 285.615906,224.830322 
	C285.551483,224.773315 285.223755,224.857330 285.195221,224.938889 
	C284.227478,227.708099 283.706757,230.734802 282.251007,233.212952 
	C278.106842,240.267563 280.772308,246.595810 285.267212,251.465469 
	C295.054718,262.069031 305.695465,271.885040 315.992188,282.011963 
	C315.996857,282.001038 315.981873,282.009613 316.209595,282.282471 
	C317.108643,282.507874 317.779968,282.460358 318.451324,282.412872 
	C318.451324,282.412872 318.514526,282.513214 318.366028,282.896790 
	C318.139404,283.539368 318.061279,283.798340 318.168152,284.375610 
	C319.404541,284.833374 320.455902,284.972870 321.507294,285.112366 
	C321.507294,285.112366 321.687653,285.255249 321.603455,285.668335 
	C323.287628,288.377594 325.055969,290.673828 327.365875,293.673279 
	C319.314850,301.613556 311.319244,309.499176 303.209808,317.497040 
	C301.272980,315.648712 300.058624,314.534424 298.893372,313.370911 
	C288.468506,302.961975 278.132263,292.461823 267.552582,282.212921 
	C265.850037,280.563599 263.073364,280.023010 260.793243,278.969910 
	C260.793243,278.969910 260.781525,278.911804 260.769287,278.480347 
	C255.871307,271.461273 244.558426,270.018951 236.542084,275.015930 
	C229.342712,275.681580 222.544434,276.609528 215.718338,276.914795 
	C210.718536,277.138397 205.682037,276.547485 200.662186,276.313354 
	C197.849075,276.182159 195.036545,276.038300 192.223755,275.900116 
	C189.339966,275.033997 186.456161,274.167908 183.219360,272.804382 
	C182.464401,271.826813 182.136154,271.249115 181.649399,270.881104 
	C174.619598,265.565979 167.589401,260.250732 160.500580,255.015030 
	C159.400894,254.202774 158.009842,253.785034 156.753525,253.184875 
	C156.753525,253.184860 156.865067,253.136185 156.917786,252.807953 
	C154.024887,247.995590 151.079269,243.511475 148.133652,239.027359 
z"/>
<path fill="#1B65C4" opacity="1.000000" stroke="none" 
	d="
M110.037582,473.040894 
	C105.355797,485.381012 102.638527,497.936218 102.813492,511.351013 
	C103.061867,530.394104 108.843399,547.227661 120.542915,561.947754 
	C137.230331,582.943542 159.336609,593.748657 186.081345,593.782349 
	C195.702286,593.794434 205.325668,591.259094 214.950287,589.902893 
	C215.876099,589.772461 216.818542,589.759888 217.964386,589.981201 
	C213.076202,591.933838 208.090332,594.252197 202.859756,595.158936 
	C157.941086,602.945251 113.657288,575.292297 102.914803,530.561584 
	C98.102318,510.522858 99.710815,491.202179 108.977730,472.375183 
	C109.616188,472.489716 109.826881,472.765289 110.037582,473.040894 
z"/>
<path fill="#1B65C4" opacity="1.000000" stroke="none" 
	d="
M378.030090,281.055481 
	C376.913055,282.641571 375.997711,284.428406 374.648743,285.783600 
	C354.263733,306.262848 333.770355,326.634399 313.414734,347.142670 
	C303.164337,357.469910 293.334412,368.219330 282.959106,378.416412 
	C272.112946,389.076233 260.869354,399.333496 249.710129,409.670258 
	C248.573837,410.722778 246.824097,411.113068 244.988068,411.694885 
	C255.959259,400.853943 267.559601,390.387054 278.595184,379.355194 
	C311.682953,346.278625 344.550049,312.981323 377.762268,279.870056 
	C378.024200,280.331818 378.027130,280.693634 378.030090,281.055481 
z"/>
<path fill="#155CC2" opacity="1.000000" stroke="none" 
	d="
M299.971436,417.952759 
	C300.847412,416.600372 301.520142,415.046448 302.630554,413.926453 
	C314.900482,401.550964 327.296570,389.300354 339.544189,376.902985 
	C358.080902,358.139618 376.545563,339.304840 395.004944,320.465240 
	C406.077667,309.164459 417.070648,297.785553 428.147003,286.488312 
	C428.778961,285.843750 429.841339,285.621155 431.070374,285.331848 
	C423.395172,293.795013 415.431366,302.205841 407.297211,310.448608 
	C372.028473,346.188599 336.709961,381.879486 300.913940,417.777985 
	C300.418335,417.967743 299.971436,417.952759 299.971436,417.952759 
z"/>
<path fill="#1E68C6" opacity="1.000000" stroke="none" 
	d="
M299.629272,418.002747 
	C299.971436,417.952759 300.418335,417.967743 300.641510,417.975189 
	C292.022003,428.417847 282.308136,438.118378 276.734131,451.056732 
	C271.056366,464.235870 270.673004,477.567780 273.229858,491.384888 
	C277.781342,515.981262 273.138733,538.715088 258.786072,559.336914 
	C257.755920,560.817017 256.675720,562.262329 255.199249,563.640381 
	C254.513260,563.353210 254.246780,563.149414 253.980301,562.945679 
	C259.908936,554.121216 265.852722,545.260437 268.555420,534.815125 
	C271.195892,524.610107 273.526794,514.439575 272.287231,503.600525 
	C271.150299,493.658905 272.060730,483.480835 270.890015,473.545929 
	C268.663818,454.654846 278.644257,441.143860 289.641876,427.938690 
	C292.579010,424.411896 296.057251,421.335724 299.629272,418.002747 
z"/>
<path fill="#1763C4" opacity="1.000000" stroke="none" 
	d="
M244.256744,411.638397 
	C241.548218,413.964478 238.827927,417.262909 235.363831,418.533447 
	C228.115799,421.191833 220.556824,423.217285 212.963181,424.629822 
	C209.039856,425.359650 204.697006,424.609497 200.668015,423.859833 
	C184.397278,420.832245 168.787613,423.834259 154.119995,430.325287 
	C137.963074,437.475403 124.672646,448.643921 115.341614,464.013000 
	C115.175591,464.286407 114.869980,464.475098 114.320190,464.857117 
	C114.010864,465.010956 113.986320,464.985565 113.985352,464.604370 
	C113.949295,463.715820 113.914215,463.208527 113.879135,462.701202 
	C127.047417,442.081085 145.473953,428.785797 169.275238,423.032654 
	C179.187698,420.636719 189.061020,420.100952 199.335129,421.505829 
	C215.177902,423.672150 230.325333,420.749359 244.256744,411.638397 
z"/>
<path fill="#1E68C6" opacity="1.000000" stroke="none" 
	d="
M486.652039,80.440483 
	C484.343964,83.048973 481.908936,85.953812 479.016632,88.293343 
	C463.346710,100.968330 453.663544,117.291916 448.865906,136.721191 
	C445.032410,152.245789 444.395813,167.756058 448.579773,183.893417 
	C448.617004,186.714554 448.758423,188.941483 448.899872,191.168411 
	C445.012695,180.476028 442.812927,169.459747 443.325836,158.067245 
	C444.747009,126.500832 458.137451,101.128845 483.233673,81.946953 
	C484.118378,81.270721 485.280945,80.958031 486.652039,80.440483 
z"/>
<path fill="#1763C4" opacity="1.000000" stroke="none" 
	d="
M594.115784,81.515472 
	C593.101990,81.645370 591.736145,81.798615 590.925110,81.200142 
	C581.937561,74.568298 571.560974,71.248787 560.957642,68.498085 
	C545.502319,64.488670 530.038452,65.276627 514.715820,69.119415 
	C508.639587,70.643272 502.776093,73.015305 496.414795,75.005730 
	C502.401428,72.213585 508.555450,68.529785 515.217590,66.775627 
	C542.284729,59.648777 567.739746,64.136078 591.435913,78.896584 
	C592.399841,79.497032 593.164124,80.418037 594.115784,81.515472 
z"/>
<path fill="#14171B" opacity="1.000000" stroke="none" 
	d="
M265.893188,148.657532 
	C264.461700,148.358490 262.796631,147.995331 261.573608,147.056412 
	C245.782501,134.933121 227.792664,129.790924 208.160248,131.226715 
	C201.838745,131.689041 195.762177,135.668701 189.451431,136.057617 
	C184.220413,136.379990 181.086929,140.380783 175.976471,140.893753 
	C181.521576,137.811661 187.176788,133.724060 193.488480,131.863174 
	C216.124222,125.189438 237.518753,128.807953 257.298950,141.640274 
	C260.326050,143.604065 263.018097,146.084381 265.893188,148.657532 
z"/>
<path fill="#191E21" opacity="1.000000" stroke="none" 
	d="
M260.958252,279.271301 
	C263.073364,280.023010 265.850037,280.563599 267.552582,282.212921 
	C278.132263,292.461823 288.468506,302.961975 298.893372,313.370911 
	C300.058624,314.534424 301.272980,315.648712 303.209808,317.497040 
	C311.319244,309.499176 319.314850,301.613556 327.365875,293.673279 
	C325.055969,290.673828 323.287628,288.377594 321.677429,285.756470 
	C331.512939,293.694824 331.407623,291.873322 323.124908,300.812073 
	C316.961639,307.463501 310.150238,313.514343 303.135284,320.309479 
	C297.016144,314.236298 291.483459,308.627502 285.820862,303.153076 
	C277.637695,295.241852 269.360382,287.428040 260.958252,279.271301 
z"/>
<path fill="#191E21" opacity="1.000000" stroke="none" 
	d="
M444.038208,564.381531 
	C445.809082,566.244629 447.854614,568.325073 449.321075,570.755005 
	C460.422058,589.148560 475.663177,602.767395 495.572235,610.956848 
	C499.849213,612.716125 504.396484,613.818359 508.601013,615.644897 
	C507.927979,616.690552 507.473145,617.314697 507.018311,617.938782 
	C491.652466,612.985596 477.812561,605.369995 465.960083,594.319519 
	C456.841187,585.817627 449.057800,576.312866 444.038208,564.381531 
z"/>
<path fill="#1B65C4" opacity="1.000000" stroke="none" 
	d="
M503.013794,245.928375 
	C509.823425,247.926727 516.554993,250.262787 523.457703,251.858353 
	C542.140198,256.176727 560.229553,253.966064 577.694580,246.162308 
	C578.879822,245.632706 580.203674,245.413208 581.861633,245.077927 
	C576.846436,247.695511 571.661133,251.062958 565.977112,252.731674 
	C546.947327,258.318481 528.068115,257.194580 509.592621,249.867691 
	C507.295441,248.956696 504.946075,248.177307 502.412842,246.961029 
	C502.474487,246.366226 502.744141,246.147308 503.013794,245.928375 
z"/>
<path fill="#14171B" opacity="1.000000" stroke="none" 
	d="
M380.704773,397.651337 
	C382.383881,398.379059 384.510651,399.094604 385.941284,400.512482 
	C401.486847,415.919586 417.050354,431.313202 432.306915,447.004181 
	C436.530273,451.347809 439.836609,456.605377 443.356506,461.589905 
	C443.982666,462.476654 443.588745,464.083710 443.320190,465.428101 
	C442.631805,465.093292 442.289124,464.688477 441.946411,464.283661 
	C435.416962,450.137756 422.860748,441.167664 412.569580,430.280823 
	C402.199493,419.310455 391.425995,408.721405 380.704773,397.651337 
z"/>
<path fill="#191E21" opacity="1.000000" stroke="none" 
	d="
M437.091309,493.341370 
	C440.655701,493.221466 440.133942,494.743774 439.076050,497.000397 
	C438.074066,499.137817 437.235718,501.529266 437.087128,503.857605 
	C436.557281,512.163086 435.939026,520.501282 436.182129,528.802856 
	C436.322174,533.584290 438.126740,538.305054 439.046661,543.079224 
	C439.804993,547.014771 440.364136,550.988770 441.054077,555.330933 
	C439.874512,553.473633 438.202789,551.362610 437.502777,548.967529 
	C432.669159,532.429749 431.365540,515.719543 435.688843,498.825531 
	C436.129486,497.103668 436.440765,495.348663 437.091309,493.341370 
z"/>
<path fill="#14171B" opacity="1.000000" stroke="none" 
	d="
M582.238892,428.885254 
	C579.149109,428.255157 575.823669,427.483917 572.531067,426.591827 
	C567.707886,425.285156 562.660034,424.444397 558.150635,422.419403 
	C549.035156,418.326141 539.486511,419.142181 530.032410,419.131378 
	C525.304932,419.125977 520.576111,420.290039 515.178223,420.959167 
	C514.338440,420.342377 514.168396,419.691498 513.998291,419.040649 
	C528.162781,416.302765 542.482788,415.733124 556.473511,419.079285 
	C565.252319,421.178955 573.520569,425.413391 582.238892,428.885254 
z"/>
<path fill="#14171B" opacity="1.000000" stroke="none" 
	d="
M507.376709,618.044434 
	C507.473145,617.314697 507.927979,616.690552 508.700500,616.021362 
	C512.526306,616.355347 516.060120,616.580200 519.534607,617.160278 
	C522.540222,617.662048 525.444397,618.906860 528.455017,619.209167 
	C532.345459,619.599731 536.339844,619.767395 540.213501,619.341003 
	C547.980042,618.486206 555.695007,617.163025 563.863892,616.066589 
	C558.686951,617.770142 553.178528,620.105530 547.447510,620.976929 
	C534.073059,623.010559 520.813293,621.365112 507.376709,618.044434 
z"/>
<path fill="#0F1113" opacity="1.000000" stroke="none" 
	d="
M142.783829,182.078720 
	C142.823273,184.025818 143.019821,186.370987 142.605972,188.602966 
	C140.638489,199.213806 139.547577,209.696274 143.363632,220.239304 
	C145.340088,225.699844 146.412170,231.487717 147.955597,237.498901 
	C142.406464,232.403885 140.891815,224.999664 140.120667,217.898407 
	C139.165146,209.099533 139.664001,200.109192 140.016510,191.220673 
	C140.133987,188.258377 141.736206,185.354965 142.783829,182.078720 
z"/>
<path fill="#0F1113" opacity="1.000000" stroke="none" 
	d="
M315.987488,282.022919 
	C305.695465,271.885040 295.054718,262.069031 285.267212,251.465469 
	C280.772308,246.595810 278.106842,240.267563 282.251007,233.212952 
	C283.706757,230.734802 284.227478,227.708099 285.195221,224.938889 
	C285.223755,224.857330 285.551483,224.773315 285.615906,224.830322 
	C285.860962,225.047165 286.055145,225.321533 286.482788,225.733902 
	C286.008942,228.385376 285.875031,231.240067 284.527100,233.300537 
	C280.657043,239.216217 282.395325,244.544861 286.114014,249.249939 
	C290.107849,254.303116 294.832306,258.790802 299.354248,263.411438 
	C304.693878,268.867584 310.158081,274.201782 315.761658,280.177795 
	C315.965851,281.185455 315.976685,281.604187 315.987488,282.022919 
z"/>
<path fill="#1763C4" opacity="1.000000" stroke="none" 
	d="
M630.999268,181.016479 
	C633.606750,166.896835 633.723816,152.686356 630.744690,138.709839 
	C629.140442,131.183685 625.683716,124.052383 623.358032,116.344528 
	C623.881409,115.916878 624.109680,115.887619 624.337952,115.858353 
	C633.845886,132.766083 636.097595,151.113144 634.681641,170.752411 
	C634.024963,173.889404 633.784851,176.379044 633.544739,178.868698 
	C633.503967,179.439392 633.463135,180.010086 632.885864,180.792709 
	C631.899353,181.008591 631.449280,181.012543 630.999268,181.016479 
z"/>
<path fill="#1A2932" opacity="1.000000" stroke="none" 
	d="
M192.466187,276.134460 
	C195.036545,276.038300 197.849075,276.182159 200.662186,276.313354 
	C205.682037,276.547485 210.718536,277.138397 215.718338,276.914795 
	C222.544434,276.609528 229.342712,275.681580 236.946136,275.015778 
	C238.269775,275.075653 238.800201,275.140350 239.330627,275.205048 
	C231.066879,280.308075 221.722656,280.274078 212.566330,280.310852 
	C206.847977,280.333832 201.113342,279.060181 195.413101,278.190918 
	C194.441559,278.042725 193.606644,276.998871 192.466187,276.134460 
z"/>
<path fill="#155CC2" opacity="1.000000" stroke="none" 
	d="
M448.831909,191.445038 
	C448.758423,188.941483 448.617004,186.714554 448.726440,184.248444 
	C452.680634,194.494492 451.229034,204.450775 444.347809,212.941467 
	C437.392273,221.523972 429.512634,229.359406 421.984192,237.472321 
	C421.359070,238.145996 420.324615,238.439835 419.118958,238.852173 
	C425.749146,231.285461 432.922668,223.934616 439.644592,216.191757 
	C442.405060,213.012009 444.191986,208.987106 446.987091,204.953186 
	C447.652649,203.654495 447.752869,202.749252 447.853088,201.844025 
	C447.853088,201.844025 447.892883,201.928177 448.141113,201.760651 
	C448.515564,201.172287 448.641724,200.751419 448.767914,200.330566 
	C448.767487,198.529465 448.767029,196.728378 448.870728,194.213898 
	C448.958618,193.279816 448.942322,193.059113 448.926025,192.838394 
	C448.872009,192.466141 448.817993,192.093903 448.831909,191.445038 
z"/>
<path fill="#191E21" opacity="1.000000" stroke="none" 
	d="
M513.593750,418.976990 
	C514.168396,419.691498 514.338440,420.342377 514.774231,421.023865 
	C514.558228,421.651703 514.024292,422.804169 513.602417,422.764496 
	C504.299683,421.890503 496.869232,426.870422 489.017181,430.504364 
	C483.956238,432.846558 478.870575,434.439392 473.127625,431.067932 
	C472.526337,430.045319 472.255219,429.555115 471.984131,429.064911 
	C477.855316,430.926971 483.397644,430.611694 489.196777,428.028503 
	C496.999512,424.552887 505.174164,421.912292 513.593750,418.976990 
z"/>
<path fill="#155CC2" opacity="1.000000" stroke="none" 
	d="
M432.899109,284.370209 
	C432.907928,283.312164 432.840210,281.732574 433.587250,281.065674 
	C443.759766,271.984131 454.045074,263.028931 464.663879,254.287888 
	C465.044739,254.724365 465.064270,254.915558 465.083771,255.106735 
	C465.083771,255.106735 465.013824,255.028854 464.823456,255.110764 
	C464.323547,255.348953 464.107117,255.589111 463.983795,255.913177 
	C453.722961,265.366425 443.462158,274.819702 432.899109,284.370209 
z"/>
<path fill="#1E68C6" opacity="1.000000" stroke="none" 
	d="
M465.431396,255.019226 
	C465.064270,254.915558 465.044739,254.724365 465.012390,254.244690 
	C471.205048,247.150696 479.885223,245.785980 488.161224,244.261490 
	C492.752533,243.415756 497.765594,244.859497 502.801178,245.599838 
	C502.744141,246.147308 502.474487,246.366226 502.088318,246.820496 
	C500.043396,246.890594 498.115051,246.725372 496.084534,246.276703 
	C496.359070,245.756958 496.735748,245.520660 497.112396,245.284363 
	C496.982605,245.194901 496.851959,245.026276 496.723114,245.027634 
	C494.110413,245.054962 491.497894,245.101776 488.885376,245.144684 
	C488.999512,245.416077 489.087097,245.703674 489.238892,245.952087 
	C489.315338,246.077164 489.508209,246.131088 489.648438,246.217194 
	C481.156311,247.654892 473.053925,250.160110 465.431396,255.019226 
z"/>
<path fill="#1E68C6" opacity="1.000000" stroke="none" 
	d="
M624.234680,115.507683 
	C624.109680,115.887619 623.881409,115.916878 623.308838,115.975327 
	C620.428894,112.209923 618.156067,108.202698 615.297058,104.669769 
	C610.834106,99.154793 605.973938,93.961281 601.136719,88.089485 
	C600.991272,87.547409 600.997375,87.053314 600.997375,87.053314 
	C607.207214,93.695107 613.558472,100.213051 619.547668,107.048164 
	C621.551025,109.334526 622.629944,112.430901 624.234680,115.507683 
z"/>
<path fill="#14171B" opacity="1.000000" stroke="none" 
	d="
M163.527618,149.051926 
	C163.899765,149.585602 164.255096,150.585541 163.961121,150.842422 
	C155.490982,158.244049 149.572372,167.327545 145.826691,177.889694 
	C145.687347,178.282578 145.140045,178.530777 144.437393,178.915436 
	C145.615921,174.922668 146.432434,170.374222 148.818573,166.905548 
	C153.119492,160.653366 158.360062,155.047623 163.527618,149.051926 
z"/>
<path fill="#0F1113" opacity="1.000000" stroke="none" 
	d="
M597.360962,599.907471 
	C598.615540,598.143250 600.280579,596.450562 601.806213,594.640320 
	C608.354248,586.870667 614.861267,579.066467 621.726257,571.515076 
	C622.110779,572.014771 622.152283,572.274170 622.193848,572.533630 
	C616.417358,583.796692 607.578369,592.322144 597.360962,599.907471 
z"/>
<path fill="#155CC2" opacity="1.000000" stroke="none" 
	d="
M253.686859,563.114624 
	C254.246780,563.149414 254.513260,563.353210 254.896301,563.782959 
	C247.570755,573.357483 238.865921,581.154175 227.480865,586.153076 
	C227.711884,585.319275 228.114685,584.101074 228.944321,583.622070 
	C238.267715,578.238953 246.660172,571.766968 253.686859,563.114624 
z"/>
<path fill="#14171B" opacity="1.000000" stroke="none" 
	d="
M625.308472,567.002686 
	C625.202576,566.407227 625.156250,565.477234 625.423401,564.648315 
	C628.357178,555.546448 631.849915,546.584351 634.103088,537.319763 
	C635.307434,532.367737 634.397034,526.901367 634.731445,521.820618 
	C635.424805,524.353455 635.827820,526.732849 636.199951,529.545288 
	C636.286682,530.825623 636.404236,531.672913 636.521729,532.520142 
	C636.473877,534.086548 636.425964,535.652893 635.967773,537.785400 
	C635.455566,539.004639 635.353638,539.657715 635.251648,540.310852 
	C635.214600,541.299561 635.177490,542.288208 634.677551,543.721313 
	C633.815063,545.117920 633.415405,546.070129 633.015747,547.022278 
	C630.515015,553.586487 628.014343,560.150757 625.308472,567.002686 
z"/>
<path fill="#191E21" opacity="1.000000" stroke="none" 
	d="
M623.054932,467.416504 
	C621.295105,470.031830 621.182373,467.734772 620.532959,466.804474 
	C617.617615,462.628113 614.840027,458.343964 611.722107,454.324158 
	C609.062073,450.894623 606.005920,447.772308 603.098022,444.160614 
	C611.873291,449.712799 618.035461,457.879150 623.054932,467.416504 
z"/>
<path fill="#0F1113" opacity="1.000000" stroke="none" 
	d="
M636.230774,529.112183 
	C635.827820,526.732849 635.424805,524.353455 635.020691,521.551086 
	C634.746155,515.038696 634.436096,508.950562 634.238159,502.858795 
	C634.207886,501.926971 634.695557,500.978363 635.146729,499.635254 
	C635.728760,501.062683 636.107666,502.892426 636.311768,505.514404 
	C636.624451,507.917664 637.111877,509.528687 637.599365,511.139679 
	C637.636169,516.735168 637.673035,522.330627 637.373047,528.328735 
	C636.766602,528.855835 636.498108,528.982788 636.230774,529.112183 
z"/>
<path fill="#0F1113" opacity="1.000000" stroke="none" 
	d="
M156.894806,253.489777 
	C158.009842,253.785034 159.400894,254.202774 160.500580,255.015030 
	C167.589401,260.250732 174.619598,265.565979 181.649399,270.881104 
	C182.136154,271.249115 182.464401,271.826813 182.928864,272.649353 
	C173.879044,270.113892 167.114349,263.863708 160.535248,257.350067 
	C159.353699,256.180267 158.201736,254.980576 156.894806,253.489777 
z"/>
<path fill="#1E68C6" opacity="1.000000" stroke="none" 
	d="
M591.333740,240.770325 
	C591.182495,240.017975 591.111572,238.938309 591.605896,238.508377 
	C597.417664,233.452850 603.307312,228.486526 609.206543,223.532471 
	C609.539856,223.252518 610.135010,223.284485 610.968628,223.266098 
	C604.778137,229.155548 598.227356,234.950195 591.333740,240.770325 
z"/>
<path fill="#155CC2" opacity="1.000000" stroke="none" 
	d="
M418.484253,238.879288 
	C418.421021,239.783829 418.315643,241.061676 417.628448,241.792023 
	C412.551453,247.187790 407.386871,252.502670 402.164948,257.758606 
	C401.532593,258.395081 400.393860,258.528473 399.117554,258.851562 
	C405.221069,252.205093 411.696899,245.602097 418.484253,238.879288 
z"/>
<path fill="#1B65C4" opacity="1.000000" stroke="none" 
	d="
M612.623413,222.174103 
	C613.371948,220.171478 614.242676,217.922699 615.500488,215.916611 
	C618.372192,211.336395 621.433350,206.874985 624.891235,202.175781 
	C625.364807,201.986237 625.745422,201.959686 625.745422,201.959686 
	C621.470764,208.652512 617.196045,215.345337 612.623413,222.174103 
z"/>
<path fill="#14171B" opacity="1.000000" stroke="none" 
	d="
M285.238464,177.304596 
	C284.768494,178.049011 284.353943,178.417847 283.939423,178.786667 
	C280.631927,172.106430 277.324463,165.426178 274.009460,158.371857 
	C277.765961,164.308197 281.529968,170.618607 285.238464,177.304596 
z"/>
<path fill="#155CC2" opacity="1.000000" stroke="none" 
	d="
M398.497864,258.878723 
	C394.949738,263.450623 391.229614,268.276733 387.171204,272.799255 
	C385.616821,274.531464 383.289551,275.570129 380.922852,276.915894 
	C386.417786,270.941925 392.304352,264.976868 398.497864,258.878723 
z"/>
<path fill="#1E68C6" opacity="1.000000" stroke="none" 
	d="
M626.032593,201.746246 
	C625.745422,201.959686 625.364807,201.986237 625.173767,201.986755 
	C626.490479,196.989532 628.005920,191.994095 629.501709,186.992767 
	C630.017700,185.267426 630.484680,183.527435 630.986694,181.405304 
	C631.449280,181.012543 631.899353,181.008591 632.686890,181.008286 
	C630.789490,187.852219 628.554626,194.692505 626.032593,201.746246 
z"/>
<path fill="#191E21" opacity="1.000000" stroke="none" 
	d="
M442.901367,474.322754 
	C442.644440,477.721924 442.303558,481.433563 441.968445,485.082520 
	C440.804474,486.942566 439.549805,488.947632 437.988739,490.975708 
	C439.394043,485.544250 441.105743,480.089752 442.901367,474.322754 
z"/>
<path fill="#0F1113" opacity="1.000000" stroke="none" 
	d="
M239.733032,275.230713 
	C238.800201,275.140350 238.269775,275.075653 237.335297,275.011108 
	C244.558426,270.018951 255.871307,271.461273 260.766327,278.450867 
	C254.344406,275.077820 247.767838,272.137360 239.733032,275.230713 
z"/>
<path fill="#191E21" opacity="1.000000" stroke="none" 
	d="
M599.101807,439.527496 
	C594.172302,436.822784 589.142639,433.788544 584.046509,430.418701 
	C588.987305,433.121429 593.994507,436.159729 599.101807,439.527496 
z"/>
<path fill="#0F1113" opacity="1.000000" stroke="none" 
	d="
M438.107910,401.540710 
	C433.496368,397.416199 428.784943,392.965912 424.100159,388.156555 
	C428.753876,392.269958 433.380920,396.742432 438.107910,401.540710 
z"/>
<path fill="#14171B" opacity="1.000000" stroke="none" 
	d="
M471.652222,428.953613 
	C472.255219,429.555115 472.526337,430.045319 472.888855,430.802307 
	C466.972687,430.556091 462.914581,426.890076 459.119995,422.019104 
	C458.991913,421.288818 458.997101,421.121674 459.002319,420.954559 
	C463.108307,423.583832 467.214325,426.213104 471.652222,428.953613 
z"/>
<path fill="#0F1113" opacity="1.000000" stroke="none" 
	d="
M148.125061,239.396164 
	C151.079269,243.511475 154.024887,247.995590 156.893341,252.863678 
	C153.916275,248.753418 151.016357,244.259186 148.125061,239.396164 
z"/>
<path fill="#0F1113" opacity="1.000000" stroke="none" 
	d="
M583.342285,608.877563 
	C587.188660,605.926514 591.348816,603.013367 595.877991,600.089966 
	C593.441406,602.353088 590.635742,604.626465 587.242859,607.041321 
	C586.432129,607.437805 586.208618,607.692871 585.985168,607.947937 
	C585.208801,608.270447 584.432434,608.593018 583.342285,608.877563 
z"/>
<path fill="#0F1113" opacity="1.000000" stroke="none" 
	d="
M458.401489,420.163269 
	C455.776123,418.444214 453.002319,416.427582 450.147827,414.072021 
	C452.795807,415.777283 455.524475,417.821503 458.401489,420.163269 
z"/>
<path fill="#1763C4" opacity="1.000000" stroke="none" 
	d="
M110.334320,472.859070 
	C109.826881,472.765289 109.616188,472.489716 109.172836,472.092651 
	C109.084824,471.398193 109.229462,470.825226 109.916000,469.923828 
	C110.590729,469.182281 110.723541,468.769196 110.856361,468.356079 
	C110.962196,467.964966 111.068031,467.573853 111.503410,466.832458 
	C111.914833,466.257599 111.940063,466.026764 111.908638,465.789734 
	C111.820419,465.472351 111.900269,465.205170 112.708725,464.961548 
	C113.508286,464.951782 113.747307,464.968689 113.986320,464.985565 
	C113.986320,464.985565 114.010864,465.010956 114.024055,465.024536 
	C112.901855,467.584473 111.766457,470.130890 110.334320,472.859070 
z"/>
<path fill="#1B65C4" opacity="1.000000" stroke="none" 
	d="
M490.131409,246.299423 
	C489.508209,246.131088 489.315338,246.077164 489.238892,245.952087 
	C489.087097,245.703674 488.999512,245.416077 488.885376,245.144684 
	C491.497894,245.101776 494.110413,245.054962 496.723114,245.027634 
	C496.851959,245.026276 496.982605,245.194901 497.112396,245.284363 
	C496.735748,245.520660 496.359070,245.756958 495.741028,246.054626 
	C493.871216,246.204529 492.242798,246.293091 490.131409,246.299423 
z"/>
<path fill="#155CC2" opacity="1.000000" stroke="none" 
	d="
M219.357269,590.035889 
	C220.797440,589.004822 222.609894,588.027283 224.823074,587.107788 
	C223.392395,588.140381 221.560989,589.114868 219.357269,590.035889 
z"/>
<path fill="#0F1113" opacity="1.000000" stroke="none" 
	d="
M406.034821,369.584595 
	C404.032745,368.002930 401.884460,366.123505 399.966888,364.068054 
	C402.094604,365.690277 403.991608,367.488556 406.034821,369.584595 
z"/>
<path fill="#14171B" opacity="1.000000" stroke="none" 
	d="
M442.762848,468.495911 
	C446.139801,469.535950 445.618134,471.582855 443.370117,473.913574 
	C442.894409,472.296265 442.786224,470.605011 442.762848,468.495911 
z"/>
<path fill="#191E21" opacity="1.000000" stroke="none" 
	d="
M441.031128,556.258545 
	C441.674530,557.601135 442.241760,559.237915 442.955017,561.146484 
	C442.385651,559.796387 441.670319,558.174622 441.031128,556.258545 
z"/>
<path fill="#1E68C6" opacity="1.000000" stroke="none" 
	d="
M633.669434,178.492798 
	C633.784851,176.379044 634.024963,173.889404 634.574097,171.211929 
	C634.520142,173.388367 634.157166,175.752625 633.669434,178.492798 
z"/>
<path fill="#51575B" opacity="1.000000" stroke="none" 
	d="
M634.130920,492.517914 
	C633.268494,493.180573 632.405823,493.471863 631.993286,493.611176 
	C631.993286,492.059814 631.993286,490.209625 632.115479,488.007965 
	C632.868713,489.153168 633.499695,490.649872 634.130920,492.517914 
z"/>
<path fill="#51575B" opacity="1.000000" stroke="none" 
	d="
M637.723877,510.780365 
	C637.111877,509.528687 636.624451,507.917664 636.292236,505.925995 
	C636.914490,507.170563 637.381470,508.795807 637.723877,510.780365 
z"/>
<path fill="#1763C4" opacity="1.000000" stroke="none" 
	d="
M598.063904,84.512772 
	C596.836548,84.059326 595.475647,83.299896 594.132812,82.158722 
	C595.410767,82.586922 596.670532,83.396858 598.063904,84.512772 
z"/>
<path fill="#191E21" opacity="1.000000" stroke="none" 
	d="
M321.361023,284.877258 
	C320.455902,284.972870 319.404541,284.833374 318.391174,284.253845 
	C318.620178,283.538269 318.811157,283.262756 319.002136,282.987213 
	C319.739685,283.538849 320.477203,284.090485 321.361023,284.877258 
z"/>
<path fill="#191E21" opacity="1.000000" stroke="none" 
	d="
M441.905273,464.582916 
	C442.289124,464.688477 442.631805,465.093292 443.073669,465.669037 
	C443.081604,466.359680 442.990356,466.879425 442.885864,467.796021 
	C442.536469,467.089355 442.200287,465.985779 441.905273,464.582916 
z"/>
<path fill="#51575B" opacity="1.000000" stroke="none" 
	d="
M636.199951,529.545288 
	C636.498108,528.982788 636.766602,528.855835 637.256836,528.771240 
	C637.319580,529.887817 637.161743,530.964539 636.762817,532.280640 
	C636.404236,531.672913 636.286682,530.825623 636.199951,529.545288 
z"/>
<path fill="#14171B" opacity="1.000000" stroke="none" 
	d="
M622.494202,572.323730 
	C622.152283,572.274170 622.110779,572.014771 622.031006,571.362671 
	C622.539246,570.330688 623.085754,569.691284 623.983643,569.008667 
	C623.821533,570.014832 623.308044,571.064331 622.494202,572.323730 
z"/>
<path fill="#14171B" opacity="1.000000" stroke="none" 
	d="
M272.790649,156.680511 
	C272.560089,156.666565 272.256439,156.409958 271.923584,156.143234 
	C271.894409,155.851791 271.894409,155.570480 271.894409,155.352829 
	C272.146545,155.685181 272.432068,156.061523 272.790649,156.680511 
z"/>
<path fill="#191E21" opacity="1.000000" stroke="none" 
	d="
M602.763916,442.678955 
	C601.943115,442.465302 601.094666,441.939209 600.173828,441.103180 
	C600.979797,441.317657 601.858032,441.842072 602.763916,442.678955 
z"/>
<path fill="#51575B" opacity="1.000000" stroke="none" 
	d="
M633.169678,546.741943 
	C633.415405,546.070129 633.815063,545.117920 634.534912,544.063965 
	C634.344666,544.795288 633.834167,545.628418 633.169678,546.741943 
z"/>
<path fill="#51575B" opacity="1.000000" stroke="none" 
	d="
M635.461853,540.196411 
	C635.353638,539.657715 635.455566,539.004639 635.850586,538.162476 
	C635.986450,538.676331 635.829224,539.379089 635.461853,540.196411 
z"/>
<path fill="#51575B" opacity="1.000000" stroke="none" 
	d="
M632.130981,485.808167 
	C631.689575,485.490326 631.365417,484.977203 631.079468,484.135925 
	C631.494568,484.409454 631.871460,485.011139 632.130981,485.808167 
z"/>
<path fill="#191E21" opacity="1.000000" stroke="none" 
	d="
M315.992188,282.011963 
	C315.976685,281.604187 315.965851,281.185455 315.954407,280.452667 
	C316.536591,280.593506 317.119446,281.048431 317.501190,281.767273 
	C316.860687,282.024017 316.421295,282.016815 315.981873,282.009613 
	C315.981873,282.009613 315.996857,282.001038 315.992188,282.011963 
z"/>
<path fill="#1E68C6" opacity="1.000000" stroke="none" 
	d="
M447.624146,202.090027 
	C447.752869,202.749252 447.652649,203.654495 447.281250,204.776001 
	C447.138428,204.106857 447.266815,203.221436 447.624146,202.090027 
z"/>
<path fill="#1763C4" opacity="1.000000" stroke="none" 
	d="
M495.774109,75.223755 
	C495.446411,75.636955 494.881744,76.257187 493.965179,76.875778 
	C494.254547,76.393028 494.895844,75.911911 495.774109,75.223755 
z"/>
<path fill="#0F1113" opacity="1.000000" stroke="none" 
	d="
M413.063324,376.605316 
	C412.491028,376.422211 411.797791,375.963257 411.122070,375.145386 
	C411.740570,375.300781 412.341492,375.815125 413.063324,376.605316 
z"/>
<path fill="#0F1113" opacity="1.000000" stroke="none" 
	d="
M447.068726,410.601135 
	C446.493530,410.420288 445.797974,409.963348 445.120850,409.147156 
	C445.742279,409.300323 446.345337,409.812653 447.068726,410.601135 
z"/>
<path fill="#0F1113" opacity="1.000000" stroke="none" 
	d="
M420.065430,383.605896 
	C419.490845,383.422882 418.796906,382.963226 418.121887,382.145020 
	C418.742523,382.300720 419.344299,382.814972 420.065430,383.605896 
z"/>
<path fill="#155CC2" opacity="1.000000" stroke="none" 
	d="
M225.415710,587.217346 
	C225.562836,586.867065 226.033386,586.472046 226.838623,586.097168 
	C226.695251,586.469055 226.217194,586.820801 225.415710,587.217346 
z"/>
<path fill="#1B65C4" opacity="1.000000" stroke="none" 
	d="
M113.985352,464.604370 
	C113.747307,464.968689 113.508286,464.951782 112.913063,464.882080 
	C112.813499,464.235840 113.070129,463.642395 113.602951,462.875061 
	C113.914215,463.208527 113.949295,463.715820 113.985352,464.604370 
z"/>
<path fill="#0F1113" opacity="1.000000" stroke="none" 
	d="
M442.331635,405.838196 
	C442.011536,405.843506 441.557648,405.655365 441.116882,405.133636 
	C441.485931,405.081604 441.841888,405.363159 442.331635,405.838196 
z"/>
<path fill="#0F1113" opacity="1.000000" stroke="none" 
	d="
M410.107605,373.643372 
	C409.659088,373.612854 409.126160,373.353058 408.742126,372.796814 
	C409.268402,372.804932 409.645813,373.109528 410.107605,373.643372 
z"/>
<path fill="#0F1113" opacity="1.000000" stroke="none" 
	d="
M408.354980,371.872314 
	C408.027527,371.872437 407.565582,371.672302 407.118774,371.134247 
	C407.496094,371.088226 407.858276,371.380188 408.354980,371.872314 
z"/>
<path fill="#0F1113" opacity="1.000000" stroke="none" 
	d="
M444.106873,407.651794 
	C443.663208,407.615051 443.137939,407.354980 442.774963,406.809296 
	C443.299866,406.825287 443.662567,407.126892 444.106873,407.651794 
z"/>
<path fill="#155CC2" opacity="1.000000" stroke="none" 
	d="
M378.289673,280.821075 
	C378.027130,280.693634 378.024200,280.331818 378.021545,279.699036 
	C378.138275,279.252991 378.254730,279.077881 378.636169,278.730713 
	C378.783875,279.234650 378.666565,279.910675 378.289673,280.821075 
z"/>
<path fill="#0F1113" opacity="1.000000" stroke="none" 
	d="
M441.112274,404.635254 
	C440.659393,404.609314 440.120941,404.350494 439.724182,403.789154 
	C440.252838,403.791840 440.639771,404.097076 441.112274,404.635254 
z"/>
<path fill="#0F1113" opacity="1.000000" stroke="none" 
	d="
M439.357361,402.912048 
	C439.031708,402.899963 438.566864,402.686340 438.118744,402.134094 
	C438.496368,402.100464 438.857269,402.405457 439.357361,402.912048 
z"/>
<path fill="#0F1113" opacity="1.000000" stroke="none" 
	d="
M316.209595,282.282471 
	C316.421295,282.016815 316.860687,282.024017 317.629333,282.017700 
	C317.958588,282.004211 318.318451,282.072327 318.384888,282.242615 
	C317.779968,282.460358 317.108643,282.507874 316.209595,282.282471 
z"/>
<path fill="#14171B" opacity="1.000000" stroke="none" 
	d="
M380.113037,397.189941 
	C380.132355,396.672546 380.279816,396.295837 380.427246,395.919128 
	C380.550842,396.230530 380.674408,396.541962 380.708282,397.116730 
	C380.618561,397.380096 380.241150,397.330658 380.113037,397.189941 
z"/>
<path fill="#0F1113" opacity="1.000000" stroke="none" 
	d="
M411.130005,374.630096 
	C410.916290,374.700989 410.596191,374.511536 410.182739,374.050110 
	C410.400848,373.975342 410.712250,374.172516 411.130005,374.630096 
z"/>
<path fill="#0F1113" opacity="1.000000" stroke="none" 
	d="
M417.117310,380.643555 
	C416.903229,380.715179 416.579254,380.523376 416.153320,380.061249 
	C416.370026,379.987335 416.688751,380.183746 417.117310,380.643555 
z"/>
<path fill="#0F1113" opacity="1.000000" stroke="none" 
	d="
M407.121887,370.638672 
	C406.906372,370.712036 406.585083,370.526093 406.173462,370.068848 
	C406.394104,369.991455 406.705109,370.185394 407.121887,370.638672 
z"/>
<path fill="#191E21" opacity="1.000000" stroke="none" 
	d="
M443.854736,562.565552 
	C443.816162,562.596924 443.757721,562.520447 443.725525,562.491821 
	C443.693359,562.463196 443.893280,562.534180 443.854736,562.565552 
z"/>
<path fill="#0F1113" opacity="1.000000" stroke="none" 
	d="
M143.917557,180.467865 
	C143.846344,180.457275 143.882751,180.313339 143.884048,180.272064 
	C143.885345,180.230774 143.988770,180.478455 143.917557,180.467865 
z"/>
<path fill="#1763C4" opacity="1.000000" stroke="none" 
	d="
M599.225830,85.636864 
	C598.999207,85.729935 598.648743,85.548943 598.192505,85.082947 
	C598.425110,84.986229 598.763611,85.174515 599.225830,85.636864 
z"/>
<path fill="#155CC2" opacity="1.000000" stroke="none" 
	d="
M431.591614,285.347534 
	C431.450562,285.023132 431.603790,284.670532 432.072418,284.332031 
	C432.220520,284.670532 432.053223,284.994934 431.591614,285.347534 
z"/>
<path fill="#0F1113" opacity="1.000000" stroke="none" 
	d="
M318.964233,282.829407 
	C318.811157,283.262756 318.620178,283.538269 318.206177,283.935547 
	C318.061279,283.798340 318.139404,283.539368 318.417358,282.926453 
	C318.617218,282.572540 318.926361,282.671570 318.964233,282.829407 
z"/>
<path fill="#1E68C6" opacity="1.000000" stroke="none" 
	d="
M464.232849,255.862976 
	C464.107117,255.589111 464.323547,255.348953 464.872406,255.129242 
	C464.901764,255.314804 464.691833,255.563797 464.232849,255.862976 
z"/>
<path fill="#1E68C6" opacity="1.000000" stroke="none" 
	d="
M611.548096,223.259842 
	C611.432129,222.989105 611.587524,222.648865 612.042603,222.280396 
	C612.167969,222.564896 611.993774,222.877625 611.548096,223.259842 
z"/>
<path fill="#1A2932" opacity="1.000000" stroke="none" 
	d="
M586.272095,607.977661 
	C586.208618,607.692871 586.432129,607.437805 586.907715,607.127808 
	C586.959473,607.384399 586.759277,607.695862 586.272095,607.977661 
z"/>
<path fill="#1E68C6" opacity="1.000000" stroke="none" 
	d="
M448.493347,200.519073 
	C448.641724,200.751419 448.515564,201.172287 448.094604,201.759354 
	C447.939484,201.519562 448.079132,201.113556 448.493347,200.519073 
z"/>
<path fill="#0F1113" opacity="1.000000" stroke="none" 
	d="
M414.119690,377.641846 
	C413.905975,377.711609 413.586548,377.522583 413.176941,377.062012 
	C413.395844,376.987976 413.704926,377.185547 414.119690,377.641846 
z"/>
<path fill="#0F1113" opacity="1.000000" stroke="none" 
	d="
M415.128174,378.667725 
	C414.916779,378.729980 414.597198,378.525391 414.182068,378.043335 
	C414.397705,377.977539 414.708832,378.189209 415.128174,378.667725 
z"/>
<path fill="#0F1113" opacity="1.000000" stroke="none" 
	d="
M458.962616,420.800354 
	C458.997101,421.121674 458.991913,421.288818 458.992157,421.706116 
	C458.800476,421.659729 458.603302,421.363220 458.516052,420.798828 
	C458.625977,420.530914 458.922913,420.646118 458.962616,420.800354 
z"/>
<path fill="#51575B" opacity="1.000000" stroke="none" 
	d="
M634.928833,493.748840 
	C634.665833,493.807037 634.396057,493.599426 634.121216,493.130310 
	C634.384888,493.073517 634.653442,493.278290 634.928833,493.748840 
z"/>
<path fill="#1763C4" opacity="1.000000" stroke="none" 
	d="
M600.777893,86.948853 
	C600.997375,87.053314 600.991272,87.547409 600.984680,87.794868 
	C600.725586,87.774353 600.473145,87.506371 600.159180,86.963776 
	C600.097717,86.689156 600.558411,86.844398 600.777893,86.948853 
z"/>
<path fill="#0F1113" opacity="1.000000" stroke="none" 
	d="
M418.129639,381.627899 
	C417.916626,381.697906 417.596924,381.507172 417.184326,381.043579 
	C417.401917,380.969543 417.712463,381.168365 418.129639,381.627899 
z"/>
<path fill="#0F1113" opacity="1.000000" stroke="none" 
	d="
M421.124817,384.635193 
	C420.911530,384.706360 420.591553,384.518616 420.178192,384.060120 
	C420.395905,383.985016 420.707031,384.180664 421.124817,384.635193 
z"/>
<path fill="#0F1113" opacity="1.000000" stroke="none" 
	d="
M422.125244,385.669647 
	C421.916718,385.728882 421.597351,385.523132 421.185242,385.038452 
	C421.399811,384.974548 421.707092,385.189606 422.125244,385.669647 
z"/>
<path fill="#0F1113" opacity="1.000000" stroke="none" 
	d="
M424.115662,387.644409 
	C423.902344,387.713379 423.578888,387.518677 423.154602,387.052063 
	C423.371002,386.980347 423.688232,387.180542 424.115662,387.644409 
z"/>
<path fill="#1B65C4" opacity="1.000000" stroke="none" 
	d="
M110.603661,468.560059 
	C110.723541,468.769196 110.590729,469.182281 110.190018,469.787506 
	C110.065071,469.574432 110.208015,469.169250 110.603661,468.560059 
z"/>
<path fill="#1B65C4" opacity="1.000000" stroke="none" 
	d="
M111.801826,465.936249 
	C111.940063,466.026764 111.914833,466.257599 111.750404,466.634766 
	C111.574593,466.548584 111.583649,466.313721 111.801826,465.936249 
z"/>
<path fill="#1E68C6" opacity="1.000000" stroke="none" 
	d="
M448.828918,192.990265 
	C448.942322,193.059113 448.958618,193.279816 448.949860,193.831726 
	C448.847687,193.942108 448.754761,193.725098 448.700226,193.498810 
	C448.673737,193.388840 448.719055,193.261581 448.828918,192.990265 
z"/>
<path fill="#0F1113" opacity="1.000000" stroke="none" 
	d="
M445.127197,408.630768 
	C444.914337,408.701691 444.594269,408.513641 444.181213,408.054077 
	C444.398834,407.978943 444.709412,408.175385 445.127197,408.630768 
z"/>
<path fill="#191E21" opacity="1.000000" stroke="none" 
	d="
M600.099731,440.642792 
	C599.904724,440.695251 599.598938,440.497528 599.204712,440.033020 
	C599.407166,439.975006 599.698120,440.183807 600.099731,440.642792 
z"/>
<path fill="#0F1113" opacity="1.000000" stroke="none" 
	d="
M448.130768,411.633392 
	C447.914612,411.705627 447.592865,411.517700 447.180145,411.057251 
	C447.401184,410.980927 447.713165,411.177094 448.130768,411.633392 
z"/>
<path fill="#0F1113" opacity="1.000000" stroke="none" 
	d="
M449.149933,412.656189 
	C448.934998,412.721466 448.610413,412.517242 448.188568,412.033142 
	C448.407623,411.964447 448.723969,412.175598 449.149933,412.656189 
z"/>
</svg>